<svg xmlns="http://www.w3.org/2000/svg" version="1.1" xmlns:xlink="http://www.w3.org/1999/xlink" xmlns:svgjs="http://svgjs.dev/svgjs" width="1500" height="378" viewBox="0 0 1500 378"><g transform="matrix(1,0,0,1,-0.9090909090909918,-0.9199268069533844)"><svg viewBox="0 0 396 100" data-background-color="#040046" preserveAspectRatio="xMidYMid meet" height="378" width="1500" xmlns="http://www.w3.org/2000/svg" xmlns:xlink="http://www.w3.org/1999/xlink"><g id="tight-bounds" transform="matrix(1,0,0,1,0.2400000000000091,0.24336688014639662)"><svg viewBox="0 0 395.52 99.51326623970722" height="99.51326623970722" width="395.52"><g><svg viewBox="0 0 395.52 99.51326623970722" height="99.51326623970722" width="395.52"><g><svg viewBox="0 0 395.52 99.51326623970722" height="99.51326623970722" width="395.52"><g id="textblocktransform"><svg viewBox="0 0 395.52 99.51326623970722" height="99.51326623970722" width="395.52" id="textblock"><g><svg viewBox="0 0 395.52 99.51326623970722" height="99.51326623970722" width="395.52"><g transform="matrix(1,0,0,1,0,0)"><svg width="395.52" viewBox="2.78 -39.79 160.1 40.28" height="99.51326623970722" data-palette-color="url(#c7bedcd1-ad65-461c-8f56-c28818c58a1f)"></svg></g></svg></g></svg></g></svg></g></svg></g><defs></defs><mask id="ba3d35b0-77dc-444a-8ccb-b2b298c6ac34"><g id="SvgjsG8357"><svg viewBox="0 0 395.52 99.51326623970722" height="99.51326623970722" width="395.52"><g><svg viewBox="0 0 395.52 99.51326623970722" height="99.51326623970722" width="395.52"><g><svg viewBox="0 0 395.52 99.51326623970722" height="99.51326623970722" width="395.52"><g id="SvgjsG8356"><svg viewBox="0 0 395.52 99.51326623970722" height="99.51326623970722" width="395.52" id="SvgjsSvg8355"><g><svg viewBox="0 0 395.52 99.51326623970722" height="99.51326623970722" width="395.52"><g transform="matrix(1,0,0,1,0,0)"><svg width="395.52" viewBox="2.78 -39.79 160.1 40.28" height="99.51326623970722" data-palette-color="url(#c7bedcd1-ad65-461c-8f56-c28818c58a1f)"><path d="M20.53 0.49L20.53 0.49Q15.11 0.49 11.12-1.59 7.13-3.66 4.96-7.73 2.78-11.79 2.78-17.72L2.78-17.72Q2.78-23.61 4.96-27.7 7.13-31.79 11.12-33.94 15.11-36.08 20.56-36.08L20.56-36.08Q24.85-36.08 27.84-34.92 30.83-33.76 32.71-31.79 34.59-29.81 35.55-27.27L35.55-27.27 29.22-24.27 28.64-24.27Q28.03-25.61 27.14-26.83 26.25-28.05 24.88-28.83 23.51-29.61 21.44-29.61L21.44-29.61Q18.6-29.61 16.7-28.39 14.79-27.17 13.84-24.56 12.89-21.95 12.89-17.75L12.89-17.75Q12.89-14.16 13.65-11.83 14.4-9.5 15.69-8.2 16.97-6.91 18.62-6.4 20.26-5.88 22.05-5.88L22.05-5.88Q23.8-5.88 25.22-6.15 26.64-6.42 27.66-6.81L27.66-6.81 27.66-13.67 20.26-14.18 20.48-19.48 35.42-19.48 35.42-2.05Q33.79-1.42 31.46-0.83 29.13-0.24 26.34 0.12 23.56 0.49 20.53 0.49ZM69.11 0L43.19 0 43.19-35.55 68.72-35.55 68.23-29.3 52.63-29.3 52.63-21.31 67.82-21.31 67.82-15.06 52.63-15.06 52.63-6.45 69.21-6.45 69.11 0ZM84.83 0.15L76.02 0.15 76.02-15.09 76.56-35.55 86.13-35.55 95.72-16.36 105.29-35.55 114.64-35.55 115.2-15.28 115.2 0.15 106.29 0.15 106.29-13.7 106.12-21.92 98.31-5.83 92.67-5.83 85.03-21.9 84.83-13.62 84.83 0.15ZM131.1 0L122.11 0 122.11-26.42 131.1-26.42 131.1 0ZM126.53-31.1L126.53-31.1Q124.36-31.1 123.08-32.3 121.79-33.5 121.79-35.55L121.79-35.55Q121.79-37.5 123.08-38.65 124.36-39.79 126.53-39.79L126.53-39.79Q128.73-39.79 129.99-38.65 131.24-37.5 131.24-35.55L131.24-35.55Q131.24-33.5 129.99-32.3 128.73-31.1 126.53-31.1ZM147.65 0L138.17 0 138.17-35.55 162.88-35.55 162.47-29.03 147.65-29.03 147.65-20.58 161.78-20.58 161.78-14.31 147.65-14.31 147.65 0Z" opacity="1" transform="matrix(1,0,0,1,0,0)" fill="white" class="wordmark-text-0" id="SvgjsPath8354"></path></svg></g></svg></g></svg></g></svg></g></svg></g><defs><mask></mask></defs></svg><rect width="395.52" height="99.51326623970722" fill="black" stroke="none" visibility="hidden"></rect></g></mask><linearGradient x1="0" x2="1" y1="0.578" y2="0.595" id="c7bedcd1-ad65-461c-8f56-c28818c58a1f"><stop stop-color="#6ee2f5" offset="0"></stop><stop stop-color="#6454f0" offset="1"></stop></linearGradient><rect width="395.52" height="99.51326623970722" fill="url(#c7bedcd1-ad65-461c-8f56-c28818c58a1f)" mask="url(#ba3d35b0-77dc-444a-8ccb-b2b298c6ac34)" data-fill-palette-color="primary"></rect></svg><rect width="395.52" height="99.51326623970722" fill="none" stroke="none" visibility="hidden"></rect></g></svg></g></svg>